<?xml version="1.0" standalone="no"?>
<!DOCTYPE svg PUBLIC "-//W3C//DTD SVG 20010904//EN"
 "http://www.w3.org/TR/2001/REC-SVG-20010904/DTD/svg10.dtd">
<svg version="1.0" xmlns="http://www.w3.org/2000/svg"
 width="400.000000pt" height="138.000000pt" viewBox="0 0 400.000000 138.000000"
 preserveAspectRatio="xMidYMid meet">

<g transform="translate(0.000000,138.000000) scale(0.100000,-0.100000)"
fill="#000000" stroke="none">
<path d="M71 1361 c-6 -11 -11 -24 -11 -30 0 -6 77 -87 170 -181 94 -93 170
-177 170 -186 0 -9 -5 -34 -12 -55 l-11 -39 -161 0 c-173 0 -209 -8 -214 -48
-7 -47 9 -52 167 -52 80 0 156 -3 167 -6 20 -5 22 -14 26 -107 10 -212 120
-407 298 -526 147 -99 335 -141 492 -111 196 38 357 143 459 296 50 76 51 77
88 182 25 72 28 75 81 102 84 42 119 50 220 50 70 0 109 -5 154 -21 103 -37
118 -50 146 -131 34 -98 64 -156 116 -222 126 -160 340 -266 537 -266 51 0
162 19 223 38 94 30 197 96 275 178 54 57 129 164 129 184 0 6 4 18 10 28 26
46 43 127 49 222 l6 105 164 3 c176 3 194 8 189 51 -5 43 -37 51 -213 51
l-161 0 -12 33 c-23 64 -20 69 158 247 94 94 170 176 170 183 0 7 -6 21 -13
31 -12 16 -50 17 -577 14 l-565 -4 -59 -23 c-160 -64 -310 -195 -379 -333 -47
-93 -55 -122 -71 -228 -14 -96 -9 -93 -101 -60 -86 31 -264 31 -350 0 -92 -33
-88 -35 -101 55 -15 104 -18 113 -57 205 -25 57 -104 164 -159 215 -66 61
-146 111 -234 146 l-59 23 -567 4 c-556 3 -567 3 -577 -17z m1081 -85 c107
-22 225 -84 306 -160 49 -46 111 -146 139 -228 22 -62 26 -90 26 -188 1 -120
-16 -191 -66 -280 -118 -212 -360 -335 -590 -299 -138 21 -235 69 -332 163
-78 77 -132 171 -160 279 -17 64 -20 208 -6 253 5 16 15 49 22 74 45 154 195
304 364 365 38 14 140 33 185 34 25 0 75 -5 112 -13z m1890 4 c83 -17 129 -32
190 -65 129 -69 240 -200 277 -325 7 -25 17 -58 22 -74 14 -45 11 -189 -6
-253 -49 -192 -179 -338 -365 -410 -266 -104 -575 11 -717 267 -53 94 -68 159
-66 285 1 103 5 130 27 190 48 125 117 216 219 284 135 91 285 127 419 101z"/>
</g>
</svg>
