<svg version="1.1" id="Layer_1" xmlns="http://www.w3.org/2000/svg" xmlns:xlink="http://www.w3.org/1999/xlink" x="0px" y="0px"
	 viewBox="0 0 612 612" style="enable-background:new 0 0 612 612;" xml:space="preserve">
<style type="text/css">
	.st0{fill:#FFFFFF;}
</style>
<g id="punchout" inkscape:version="0.48.1 r9760" sodipodi:docname="twitter_bootstrap_logo.svg" xmlns:cc="http://creativecommons.org/ns#" xmlns:dc="http://purl.org/dc/elements/1.1/" xmlns:inkscape="http://www.inkscape.org/namespaces/inkscape" xmlns:rdf="http://www.w3.org/1999/02/22-rdf-syntax-ns#" xmlns:sodipodi="http://sodipodi.sourceforge.net/DTD/sodipodi-0.dtd" xmlns:svg="http://www.w3.org/2000/svg">
	<g>
		<path class="st0" d="M382,341.1c-10.3-9.3-24.7-13.9-43.3-13.9H230.3v109.2h108.3c18.6,0,33.1-4.8,43.3-14.5
			c10.3-9.6,15.5-23.3,15.5-41C397.4,363.6,392.3,350.3,382,341.1z"/>
		<path class="st0" d="M367,270.5c9.8-8.3,14.7-20.4,14.7-36.1c0-17.6-4.4-30.1-13.2-37.3c-8.8-7.2-21.6-10.8-38.2-10.8h-100V283
			h100C344.9,283,357.2,278.7,367,270.5z"/>
		<path class="st0" d="M506,6H106C51,6,6,51,6,106v400c0,55,45,100,100,100h400c55,0,100-45,100-100V106C606,51,561,6,506,6z
			 M451.3,427.4c-4.9,12-12.5,22.3-23,30.9s-23.8,15.5-40.2,20.6c-16.4,5.1-35.8,7.6-58.3,7.6H168.9V136.4H339
			c31.4,0,56.6,7.2,75.5,21.6c18.9,14.4,28.4,36.1,28.4,65.2c0,17.6-4.3,32.7-12.9,45.3c-8.6,12.5-21,22.4-37.1,29.2v1
			c21.6,4.6,37.9,14.8,49,30.6c11.1,15.9,16.7,35.7,16.7,59.6C458.6,402.6,456.2,415.4,451.3,427.4z"/>
	</g>
</g>
</svg>
