<?xml version="1.0" encoding="utf-8"?>
<!-- Generator: Adobe Illustrator 23.0.4, SVG Export Plug-In . SVG Version: 6.00 Build 0)  -->
<svg version="1.1" id="Ebene_1" xmlns="http://www.w3.org/2000/svg" xmlns:xlink="http://www.w3.org/1999/xlink" x="0px" y="0px"
	 viewBox="0 0 28 28" style="enable-background:new 0 0 28 28;" xml:space="preserve">
<style type="text/css">
	.st0{fill:#663399;}
	.st1{fill:#FFFFFF;}
</style>
<g id="monogram">
	<circle class="st0" cx="13.8" cy="14" r="11.2"/>
	<g>
		<path class="st1" d="M7.6,20.2C5.9,18.5,5,16.3,5,14.2l8.7,8.6C11.5,22.7,9.3,21.8,7.6,20.2z"/>
		<path class="st1" d="M15.7,22.6L5.3,12.1c0.9-3.9,4.4-6.9,8.6-6.9c2.9,0,5.5,1.4,7,3.6l-1.2,1.1c-1.3-1.9-3.5-3-5.9-3
			c-3.1,0-5.7,2-6.8,4.8l9.2,9.2c2.3-0.8,4.1-2.8,4.6-5.2H17V14h5.5C22.6,18.1,19.6,21.7,15.7,22.6z"/>
	</g>
</g>
</svg>
