<?xml version="1.0" encoding="UTF-8"?>
<svg xmlns="http://www.w3.org/2000/svg" xmlns:xlink="http://www.w3.org/1999/xlink" width="20pt" height="20pt" viewBox="0 0 20 20" version="1.1">
<g id="surface3388546">
<path style=" stroke:none;fill-rule:nonzero;fill:rgb(10.980392%,47.45098%,74.509804%);fill-opacity:1;" d="M 11.945312 1.203125 C 11.90625 1.210938 11.863281 1.222656 11.820312 1.242188 C 11.476562 1.410156 11.085938 1.917969 11.011719 2.015625 C 11.007812 2.023438 11.003906 2.03125 11 2.035156 C 10.613281 2.613281 10.40625 3.289062 10.398438 3.996094 C 10.394531 4.523438 10.5 5.046875 10.707031 5.550781 C 11.195312 6.722656 12.207031 7.691406 13.414062 8.144531 C 13.453125 8.15625 13.492188 8.171875 13.5625 8.195312 C 13.570312 8.199219 13.628906 8.21875 13.636719 8.21875 L 13.679688 8.234375 C 13.742188 8.257812 13.808594 8.277344 13.871094 8.289062 C 14.1875 8.351562 14.496094 8.390625 14.789062 8.398438 C 14.835938 8.398438 14.886719 8.398438 14.9375 8.398438 C 17.128906 8.398438 17.980469 6.851562 18.261719 6.335938 C 18.289062 6.289062 18.3125 6.246094 18.328125 6.222656 C 18.328125 6.21875 18.328125 6.21875 18.332031 6.21875 C 18.453125 6.035156 18.40625 5.789062 18.226562 5.664062 C 18.042969 5.539062 17.796875 5.585938 17.671875 5.769531 L 17.667969 5.769531 C 17.085938 6.628906 16.085938 6.890625 14.699219 6.546875 C 14.59375 6.523438 14.484375 6.484375 14.382812 6.445312 C 14.25 6.398438 14.121094 6.34375 14 6.285156 C 13.757812 6.164062 13.527344 6.019531 13.320312 5.859375 C 12.101562 4.914062 11.625 2.949219 12.339844 1.8125 C 12.433594 1.660156 12.417969 1.464844 12.296875 1.332031 C 12.207031 1.230469 12.074219 1.1875 11.945312 1.203125 Z M 8.402344 2 C 8.3125 2 8.21875 2.027344 8.144531 2.089844 C 7.539062 2.582031 6.921875 3.390625 6.894531 3.421875 C 6.890625 3.429688 6.890625 3.433594 6.882812 3.4375 C 5.789062 5.03125 5.707031 7.296875 6.675781 9.210938 C 6.828125 9.515625 7 9.804688 7.179688 10.070312 L 7.234375 10.148438 C 7.390625 10.375 7.5625 10.628906 7.785156 10.828125 C 7.863281 10.917969 7.945312 11 8.027344 11.082031 L 8.066406 11.125 L 8.097656 11.15625 C 8.179688 11.234375 8.265625 11.316406 8.351562 11.394531 L 8.355469 11.394531 C 8.359375 11.40625 8.371094 11.410156 8.378906 11.417969 C 8.476562 11.507812 8.578125 11.589844 8.710938 11.695312 L 8.746094 11.71875 C 8.847656 11.804688 8.953125 11.882812 9.0625 11.957031 C 9.070312 11.964844 9.082031 11.972656 9.09375 11.980469 C 9.132812 12.007812 9.167969 12.03125 9.207031 12.054688 L 9.242188 12.082031 L 9.289062 12.109375 C 9.367188 12.164062 9.445312 12.210938 9.554688 12.273438 C 9.628906 12.320312 9.703125 12.363281 9.753906 12.386719 C 9.777344 12.398438 9.800781 12.414062 9.855469 12.441406 L 9.976562 12.507812 C 9.984375 12.507812 10.011719 12.523438 10.015625 12.523438 C 10.097656 12.566406 10.179688 12.605469 10.261719 12.640625 L 10.390625 12.699219 C 10.472656 12.734375 10.554688 12.769531 10.660156 12.808594 L 10.707031 12.824219 C 10.710938 12.828125 10.75 12.84375 10.75 12.84375 C 10.828125 12.871094 10.902344 12.898438 10.980469 12.921875 L 11.15625 12.980469 C 11.242188 13.007812 11.34375 13.042969 11.453125 13.0625 C 12 13.152344 12.53125 13.199219 13.03125 13.199219 C 13.089844 13.199219 13.148438 13.199219 13.207031 13.199219 C 17.625 13.101562 18.773438 9.351562 18.78125 9.3125 C 18.835938 9.125 18.75 8.921875 18.570312 8.835938 C 18.390625 8.753906 18.179688 8.8125 18.070312 8.976562 C 16.949219 10.609375 14.835938 11.300781 12.679688 10.730469 C 12.578125 10.707031 12.484375 10.679688 12.363281 10.640625 C 12.34375 10.632812 12.324219 10.625 12.292969 10.613281 C 12.222656 10.59375 12.152344 10.570312 12.074219 10.539062 L 11.964844 10.496094 C 11.898438 10.472656 11.835938 10.445312 11.757812 10.414062 L 11.707031 10.390625 C 11.609375 10.347656 11.519531 10.304688 11.4375 10.261719 L 11.207031 10.144531 C 11.15625 10.117188 11.109375 10.089844 11.039062 10.046875 L 11 10.027344 L 10.960938 10.003906 C 10.90625 9.96875 10.847656 9.933594 10.792969 9.894531 L 10.757812 9.871094 C 10.753906 9.871094 10.722656 9.847656 10.71875 9.84375 C 10.671875 9.816406 10.625 9.785156 10.582031 9.757812 C 10.484375 9.6875 10.390625 9.617188 10.28125 9.53125 L 10.234375 9.492188 C 9.203125 8.671875 8.441406 7.570312 8.085938 6.390625 C 7.75 5.308594 8 3.890625 8.746094 2.601562 C 8.84375 2.433594 8.804688 2.21875 8.65625 2.09375 C 8.585938 2.03125 8.492188 2 8.402344 2 Z M 4 3.199219 C 3.90625 3.199219 3.808594 3.234375 3.734375 3.304688 C 2.96875 3.988281 2.398438 4.878906 2.335938 4.980469 C 0.699219 7.359375 1.015625 11.058594 2.136719 13.320312 C 2.160156 13.367188 2.183594 13.410156 2.207031 13.457031 L 2.222656 13.480469 C 2.242188 13.527344 2.265625 13.574219 2.273438 13.582031 C 2.285156 13.613281 2.304688 13.644531 2.3125 13.65625 C 2.332031 13.695312 2.351562 13.726562 2.382812 13.789062 L 2.511719 14.007812 C 2.53125 14.039062 2.550781 14.070312 2.554688 14.078125 C 2.582031 14.121094 2.609375 14.164062 2.632812 14.203125 L 2.695312 14.304688 C 2.714844 14.335938 2.734375 14.359375 2.746094 14.375 C 2.808594 14.472656 2.871094 14.570312 2.941406 14.664062 C 2.945312 14.667969 2.945312 14.671875 2.949219 14.671875 L 2.976562 14.707031 C 3.03125 14.789062 3.089844 14.867188 3.140625 14.929688 L 3.367188 15.21875 C 3.371094 15.222656 3.398438 15.253906 3.398438 15.257812 L 3.429688 15.292969 C 3.5 15.378906 3.574219 15.460938 3.648438 15.542969 C 3.65625 15.554688 3.667969 15.566406 3.679688 15.578125 C 3.75 15.65625 3.820312 15.734375 3.898438 15.8125 L 3.96875 15.882812 C 4.027344 15.945312 4.085938 16.003906 4.148438 16.0625 C 4.148438 16.0625 4.179688 16.09375 4.179688 16.09375 L 4.242188 16.148438 C 4.316406 16.222656 4.394531 16.292969 4.453125 16.34375 C 4.457031 16.347656 4.515625 16.398438 4.519531 16.398438 C 4.59375 16.464844 4.664062 16.527344 4.742188 16.589844 L 5.125 16.890625 C 5.1875 16.9375 5.253906 16.984375 5.328125 17.039062 C 5.351562 17.058594 5.378906 17.078125 5.40625 17.09375 C 5.417969 17.105469 5.429688 17.113281 5.4375 17.117188 L 5.726562 17.3125 C 5.828125 17.378906 5.933594 17.445312 6.0625 17.519531 L 6.132812 17.558594 C 6.210938 17.605469 6.292969 17.652344 6.367188 17.695312 C 6.414062 17.71875 6.460938 17.742188 6.5 17.761719 C 6.554688 17.789062 6.613281 17.824219 6.703125 17.867188 C 6.710938 17.871094 6.773438 17.902344 6.78125 17.90625 C 6.875 17.953125 6.964844 17.992188 7.082031 18.046875 C 7.082031 18.046875 7.117188 18.0625 7.117188 18.0625 C 7.226562 18.109375 7.328125 18.152344 7.464844 18.207031 C 7.484375 18.21875 7.507812 18.226562 7.511719 18.226562 C 7.609375 18.265625 7.710938 18.300781 7.792969 18.332031 C 7.800781 18.335938 7.84375 18.351562 7.851562 18.355469 C 7.960938 18.390625 8.070312 18.429688 8.210938 18.472656 C 8.234375 18.480469 8.261719 18.488281 8.265625 18.488281 L 8.34375 18.511719 C 8.441406 18.542969 8.539062 18.574219 8.640625 18.59375 C 9.386719 18.730469 10.113281 18.800781 10.800781 18.800781 C 16.53125 18.800781 18.355469 14.1875 18.375 14.140625 C 18.445312 13.957031 18.367188 13.746094 18.195312 13.648438 C 18.023438 13.554688 17.804688 13.601562 17.679688 13.757812 C 16.210938 15.695312 13.4375 16.414062 10.261719 15.683594 C 10.1875 15.664062 10.109375 15.640625 10.03125 15.617188 L 9.882812 15.574219 C 9.78125 15.542969 9.679688 15.507812 9.578125 15.472656 C 9.578125 15.472656 9.53125 15.457031 9.53125 15.457031 C 9.445312 15.425781 9.359375 15.390625 9.28125 15.363281 L 9.195312 15.328125 C 9.097656 15.289062 9 15.25 8.90625 15.207031 L 8.851562 15.183594 C 8.765625 15.144531 8.6875 15.105469 8.605469 15.066406 C 8.597656 15.0625 8.535156 15.03125 8.527344 15.03125 C 8.472656 15 8.414062 14.972656 8.34375 14.933594 L 8.015625 14.757812 C 7.984375 14.734375 7.949219 14.714844 7.917969 14.699219 C 7.820312 14.636719 7.71875 14.578125 7.617188 14.511719 C 7.59375 14.5 7.574219 14.484375 7.535156 14.457031 C 7.464844 14.414062 7.398438 14.367188 7.300781 14.296875 L 7.261719 14.269531 C 7.195312 14.222656 7.128906 14.171875 7.074219 14.132812 C 7.039062 14.109375 7.003906 14.078125 6.949219 14.039062 C 6.898438 14 6.847656 13.960938 6.800781 13.921875 L 6.714844 13.851562 C 6.640625 13.792969 6.570312 13.730469 6.5 13.667969 C 6.492188 13.660156 6.484375 13.652344 6.472656 13.644531 C 6.390625 13.570312 6.3125 13.5 6.214844 13.40625 L 5.929688 13.125 C 5.863281 13.054688 5.792969 12.984375 5.714844 12.898438 C 5.644531 12.816406 5.574219 12.738281 5.484375 12.628906 L 5.3125 12.421875 C 5.292969 12.390625 5.273438 12.363281 5.246094 12.332031 C 5.1875 12.253906 5.128906 12.175781 5.070312 12.09375 C 3.515625 9.953125 3.109375 5.476562 4.320312 3.835938 C 4.445312 3.671875 4.421875 3.441406 4.269531 3.304688 C 4.195312 3.234375 4.097656 3.199219 4 3.199219 Z M 4 3.199219 "/>
</g>
</svg>
