<?xml version="1.0" encoding="UTF-8"?>
<svg xmlns="http://www.w3.org/2000/svg" xmlns:xlink="http://www.w3.org/1999/xlink" width="48pt" height="48pt" viewBox="0 0 48 48" version="1.1">
<g id="surface3324688">
<path style=" stroke:none;fill-rule:nonzero;fill:rgb(100%,100%,100%);fill-opacity:1;" d="M 41.296875 26.132812 C 39.617188 26.140625 38.167969 26.542969 36.949219 27.144531 C 36.503906 26.253906 36.054688 25.472656 35.980469 24.894531 C 35.890625 24.214844 35.789062 23.808594 35.894531 23 C 36.003906 22.195312 36.46875 21.050781 36.464844 20.964844 C 36.457031 20.878906 36.359375 20.464844 35.390625 20.457031 C 34.425781 20.453125 33.597656 20.644531 33.5 20.898438 C 33.402344 21.15625 33.21875 21.730469 33.101562 22.328125 C 32.933594 23.207031 31.171875 26.332031 30.171875 27.96875 C 29.84375 27.328125 29.566406 26.765625 29.507812 26.320312 C 29.421875 25.644531 29.316406 25.238281 29.425781 24.429688 C 29.53125 23.621094 30 22.476562 29.992188 22.390625 C 29.984375 22.304688 29.886719 21.894531 28.921875 21.886719 C 27.953125 21.882812 27.128906 22.074219 27.03125 22.328125 C 26.933594 22.585938 26.828125 23.179688 26.632812 23.757812 C 26.433594 24.335938 24.09375 29.550781 23.480469 30.902344 C 23.167969 31.59375 22.894531 32.144531 22.703125 32.523438 C 22.703125 32.523438 22.703125 32.519531 22.703125 32.519531 C 22.703125 32.519531 22.691406 32.546875 22.671875 32.589844 C 22.503906 32.910156 22.410156 33.085938 22.410156 33.085938 C 22.410156 33.085938 22.410156 33.089844 22.410156 33.09375 C 22.28125 33.332031 22.140625 33.550781 22.074219 33.550781 C 22.023438 33.550781 21.929688 32.921875 22.09375 32.058594 C 22.441406 30.246094 23.277344 27.425781 23.269531 27.328125 C 23.265625 27.277344 23.425781 26.789062 22.726562 26.53125 C 22.042969 26.28125 21.800781 26.695312 21.738281 26.699219 C 21.675781 26.699219 21.632812 26.84375 21.632812 26.84375 C 21.632812 26.84375 22.390625 23.671875 20.183594 23.671875 C 18.800781 23.671875 16.886719 25.183594 15.945312 26.554688 C 15.347656 26.878906 14.074219 27.574219 12.722656 28.316406 C 12.207031 28.601562 11.675781 28.894531 11.171875 29.167969 C 11.140625 29.132812 11.105469 29.09375 11.070312 29.054688 C 8.390625 26.199219 3.4375 24.175781 3.644531 20.332031 C 3.722656 18.933594 4.207031 15.253906 13.164062 10.792969 C 20.5 7.136719 26.375 8.140625 27.390625 10.371094 C 28.839844 13.558594 24.25 19.476562 16.632812 20.332031 C 13.730469 20.65625 12.199219 19.53125 11.820312 19.113281 C 11.417969 18.671875 11.359375 18.652344 11.210938 18.734375 C 10.96875 18.871094 11.121094 19.257812 11.210938 19.492188 C 11.4375 20.082031 12.371094 21.132812 13.960938 21.65625 C 15.363281 22.117188 18.769531 22.367188 22.890625 20.773438 C 27.511719 18.988281 31.113281 14.019531 30.054688 9.867188 C 28.976562 5.644531 21.976562 4.253906 15.347656 6.609375 C 11.398438 8.011719 7.128906 10.210938 4.058594 13.082031 C 0.410156 16.496094 -0.171875 19.46875 0.0664062 20.710938 C 0.917969 25.121094 7 27.996094 9.433594 30.125 C 9.316406 30.191406 9.203125 30.253906 9.101562 30.308594 C 7.878906 30.914062 3.242188 33.339844 2.082031 35.902344 C 0.769531 38.808594 2.292969 40.894531 3.300781 41.175781 C 6.429688 42.046875 9.636719 40.480469 11.363281 37.910156 C 13.089844 35.339844 12.878906 31.988281 12.085938 30.460938 C 12.078125 30.441406 12.066406 30.421875 12.054688 30.402344 C 12.371094 30.21875 12.691406 30.027344 13.011719 29.839844 C 13.632812 29.476562 14.242188 29.136719 14.769531 28.847656 C 14.472656 29.65625 14.257812 30.632812 14.144531 32.035156 C 14.011719 33.6875 14.6875 35.820312 15.574219 36.660156 C 15.964844 37.027344 16.433594 37.039062 16.730469 37.039062 C 17.757812 37.039062 18.230469 36.179688 18.746094 35.167969 C 19.382812 33.925781 19.945312 32.476562 19.945312 32.476562 C 19.945312 32.476562 19.238281 36.386719 21.164062 36.386719 C 21.867188 36.386719 22.570312 35.476562 22.886719 35.011719 C 22.886719 35.019531 22.886719 35.019531 22.886719 35.019531 C 22.886719 35.019531 22.90625 34.988281 22.941406 34.929688 C 23.015625 34.816406 23.054688 34.746094 23.054688 34.746094 C 23.054688 34.746094 23.058594 34.738281 23.058594 34.726562 C 23.339844 34.238281 23.96875 33.121094 24.90625 31.28125 C 26.117188 28.902344 27.277344 25.921875 27.277344 25.921875 C 27.277344 25.921875 27.386719 26.648438 27.742188 27.855469 C 27.949219 28.5625 28.390625 29.347656 28.742188 30.101562 C 28.460938 30.488281 28.289062 30.714844 28.289062 30.714844 C 28.289062 30.714844 28.289062 30.71875 28.292969 30.726562 C 28.066406 31.023438 27.816406 31.34375 27.550781 31.660156 C 26.59375 32.796875 25.457031 34.101562 25.304688 34.476562 C 25.125 34.917969 25.167969 35.242188 25.515625 35.503906 C 25.769531 35.695312 26.21875 35.726562 26.691406 35.695312 C 27.550781 35.636719 28.15625 35.421875 28.453125 35.292969 C 28.917969 35.128906 29.460938 34.871094 29.96875 34.496094 C 30.90625 33.808594 31.472656 32.820312 31.417969 31.511719 C 31.386719 30.792969 31.160156 30.078125 30.867188 29.402344 C 30.953125 29.28125 31.039062 29.15625 31.125 29.035156 C 32.601562 26.871094 33.75 24.496094 33.75 24.496094 C 33.75 24.496094 33.859375 25.222656 34.214844 26.429688 C 34.390625 27.039062 34.746094 27.703125 35.066406 28.355469 C 33.671875 29.484375 32.8125 30.800781 32.511719 31.660156 C 31.957031 33.253906 32.390625 33.976562 33.203125 34.140625 C 33.574219 34.214844 34.09375 34.046875 34.484375 33.878906 C 34.972656 33.71875 35.558594 33.449219 36.105469 33.046875 C 37.042969 32.355469 37.945312 31.390625 37.890625 30.085938 C 37.867188 29.488281 37.707031 28.898438 37.488281 28.332031 C 38.664062 27.839844 40.191406 27.566406 42.136719 27.792969 C 46.308594 28.28125 47.125 30.886719 46.96875 31.976562 C 46.8125 33.066406 45.9375 33.664062 45.644531 33.847656 C 45.351562 34.027344 45.265625 34.089844 45.289062 34.222656 C 45.324219 34.417969 45.457031 34.414062 45.707031 34.371094 C 46.050781 34.3125 47.898438 33.484375 47.976562 31.472656 C 48.078125 28.914062 45.628906 26.109375 41.296875 26.132812 Z M 9.144531 36.972656 C 7.761719 38.476562 5.832031 39.046875 5.003906 38.566406 C 4.109375 38.050781 4.464844 35.832031 6.160156 34.230469 C 7.191406 33.257812 8.527344 32.359375 9.410156 31.804688 C 9.613281 31.683594 9.910156 31.507812 10.269531 31.289062 C 10.328125 31.257812 10.363281 31.238281 10.363281 31.238281 L 10.359375 31.238281 C 10.429688 31.195312 10.5 31.152344 10.574219 31.109375 C 11.191406 33.386719 10.59375 35.390625 9.144531 36.972656 Z M 19.210938 30.128906 C 18.730469 31.300781 17.722656 34.304688 17.109375 34.140625 C 16.582031 34.003906 16.261719 31.722656 17.003906 29.476562 C 17.375 28.347656 18.175781 26.996094 18.644531 26.472656 C 19.398438 25.628906 20.226562 25.351562 20.429688 25.695312 C 20.683594 26.132812 19.511719 29.394531 19.210938 30.128906 Z M 27.523438 34.097656 C 27.320312 34.203125 27.132812 34.269531 27.046875 34.21875 C 26.984375 34.179688 27.132812 34.039062 27.132812 34.039062 C 27.132812 34.039062 28.171875 32.921875 28.582031 32.410156 C 28.820312 32.113281 29.097656 31.761719 29.398438 31.371094 C 29.398438 31.410156 29.398438 31.449219 29.398438 31.488281 C 29.398438 32.828125 28.101562 33.734375 27.523438 34.097656 Z M 33.929688 32.636719 C 33.777344 32.527344 33.804688 32.179688 34.304688 31.085938 C 34.5 30.660156 34.949219 29.9375 35.726562 29.25 C 35.820312 29.53125 35.875 29.804688 35.871094 30.058594 C 35.863281 31.746094 34.660156 32.375 33.929688 32.636719 Z M 33.929688 32.636719 "/>
</g>
</svg>
