<?xml version="1.0" encoding="UTF-8"?>
<svg xmlns="http://www.w3.org/2000/svg" xmlns:xlink="http://www.w3.org/1999/xlink" width="30pt" height="30pt" viewBox="0 0 30 30" version="1.1">
<g id="surface6298016">
<path style=" stroke:none;fill-rule:nonzero;fill:rgb(0%,0%,0%);fill-opacity:1;" d="M 0.375 0.375 L 0.375 29.625 L 29.625 29.625 L 29.625 0.375 Z M 3.625 3.625 L 26.375 3.625 L 26.375 26.375 L 3.625 26.375 Z M 6.875 11.75 L 6.875 14.109375 L 10.246094 14.109375 L 10.246094 24.75 L 13.019531 24.75 L 13.019531 14.109375 L 16.460938 14.109375 L 16.460938 11.75 Z M 20.777344 11.78125 C 18.851562 11.921875 16.929688 12.726562 16.929688 15.394531 C 16.929688 19.316406 22.210938 19.3125 22.210938 21.082031 C 22.210938 21.25 22.285156 22.46875 20.421875 22.46875 C 18.558594 22.46875 17 21.296875 17 21.296875 L 17 24.144531 C 17 24.144531 25.128906 26.769531 25.128906 20.84375 C 25.128906 16.992188 19.796875 17.1875 19.796875 15.273438 C 19.796875 14.53125 20.324219 13.839844 21.78125 13.839844 C 23.238281 13.839844 24.53125 14.699219 24.53125 14.699219 L 24.625 12.164062 C 24.625 12.164062 22.699219 11.640625 20.777344 11.78125 Z M 20.777344 11.78125 "/>
</g>
</svg>
