<?xml version="1.0" encoding="utf-8"?>
<!-- Generator: Adobe Illustrator 23.0.4, SVG Export Plug-In . SVG Version: 6.00 Build 0)  -->
<svg version="1.1" id="Layer_1" xmlns="http://www.w3.org/2000/svg" xmlns:xlink="http://www.w3.org/1999/xlink" x="0px" y="0px"
	 viewBox="0 0 25 25" style="enable-background:new 0 0 25 25;" xml:space="preserve">
<style type="text/css">
	.st0{fill:#1976D2;}
	.st1{fill:#FFFFFF;}
</style>
<g id="surface6195380">
	<path class="st0" d="M2.7,2.7h19.6v19.6H2.7V2.7z"/>
	<path class="st1" d="M14.4,11.4H7.2v1.8h2.6v8h2v-8h2.6V11.4z"/>
	<path class="st1" d="M20.8,13.6c0,0-1-0.6-2.1-0.6c-1.1,0-1.5,0.5-1.5,1.1c0,1.4,4,1.3,4,4.2c0,4.5-6.1,2.5-6.1,2.5v-2.1
		c0,0,1.2,0.9,2.6,0.9c1.4,0,1.3-0.9,1.3-1c0-1.3-4-1.3-4-4.3c0-4,5.8-2.4,5.8-2.4L20.8,13.6z"/>
</g>
</svg>
