<?xml version="1.0" encoding="UTF-8"?>
<svg xmlns="http://www.w3.org/2000/svg" xmlns:xlink="http://www.w3.org/1999/xlink" width="28pt" height="28pt" viewBox="0 0 28 28" version="1.1">
<g id="surface3390056">
<path style=" stroke:none;fill-rule:nonzero;fill:rgb(9.411765%,41.176471%,62.352941%);fill-opacity:1;" d="M 14 3.5 C 8.210938 3.5 3.5 8.210938 3.5 14 C 3.5 19.789062 8.210938 24.5 14 24.5 C 19.789062 24.5 24.5 19.789062 24.5 14 C 24.5 8.210938 19.789062 3.5 14 3.5 Z M 14 3.992188 C 19.523438 3.992188 24.007812 8.476562 24.007812 14 C 24.007812 19.523438 19.523438 24.007812 14 24.007812 C 8.476562 24.007812 3.992188 19.523438 3.992188 14 C 3.992188 8.476562 8.476562 3.992188 14 3.992188 Z M 14 5.003906 C 10.851562 5.003906 8.089844 6.601562 6.480469 9.050781 C 6.691406 9.058594 6.882812 9.050781 7.054688 9.050781 C 8 9.050781 9.460938 8.941406 9.460938 8.941406 C 9.945312 8.914062 10 9.621094 9.515625 9.679688 C 9.515625 9.679688 9.019531 9.761719 8.476562 9.789062 L 11.757812 19.523438 L 13.726562 13.617188 L 12.332031 9.789062 C 11.847656 9.761719 11.375 9.679688 11.375 9.679688 C 10.890625 9.652344 10.945312 8.914062 11.429688 8.941406 C 11.429688 8.941406 12.921875 9.050781 13.808594 9.050781 C 14.753906 9.050781 16.214844 8.941406 16.214844 8.941406 C 16.699219 8.914062 16.753906 9.621094 16.269531 9.679688 C 16.269531 9.679688 15.769531 9.761719 15.230469 9.789062 L 18.484375 19.46875 L 19.386719 16.460938 C 19.839844 15.292969 20.070312 14.308594 20.070312 13.535156 C 20.070312 12.421875 19.675781 11.671875 19.332031 11.074219 C 18.878906 10.332031 18.457031 9.683594 18.457031 8.941406 C 18.457031 8.113281 19.074219 7.355469 19.960938 7.355469 C 20.003906 7.355469 20.03125 7.355469 20.070312 7.355469 C 18.46875 5.886719 16.34375 5.003906 14 5.003906 Z M 21.902344 9.679688 C 21.941406 9.96875 21.957031 10.277344 21.957031 10.609375 C 21.957031 11.523438 21.785156 12.550781 21.273438 13.835938 L 18.539062 21.792969 C 21.21875 20.230469 22.996094 17.324219 22.996094 14 C 22.996094 12.433594 22.605469 10.960938 21.902344 9.679688 Z M 5.769531 10.335938 C 5.269531 11.453125 5.003906 12.695312 5.003906 14 C 5.003906 17.566406 7.058594 20.632812 10.0625 22.09375 Z M 14.164062 14.792969 L 11.457031 22.640625 C 12.261719 22.875 13.113281 22.996094 14 22.996094 C 15.050781 22.996094 16.042969 22.832031 16.980469 22.503906 C 16.957031 22.464844 16.941406 22.410156 16.925781 22.367188 Z M 14.164062 14.792969 "/>
</g>
</svg>
