<?xml version="1.0" encoding="UTF-8"?>
<svg xmlns="http://www.w3.org/2000/svg" xmlns:xlink="http://www.w3.org/1999/xlink" width="35pt" height="35pt" viewBox="0 0 35 35" version="1.1">
<g id="surface3424262">
<path style=" stroke:none;fill-rule:nonzero;fill:rgb(100%,100%,100%);fill-opacity:1;" d="M 17.5 0.4375 C 8.089844 0.4375 0.4375 8.089844 0.4375 17.5 C 0.4375 26.910156 8.089844 34.5625 17.5 34.5625 C 26.910156 34.5625 34.5625 26.910156 34.5625 17.5 C 34.5625 8.089844 26.910156 0.4375 17.5 0.4375 Z M 17.5 1.238281 C 26.476562 1.238281 33.761719 8.523438 33.761719 17.5 C 33.761719 26.476562 26.476562 33.761719 17.5 33.761719 C 8.523438 33.761719 1.238281 26.476562 1.238281 17.5 C 1.238281 8.523438 8.523438 1.238281 17.5 1.238281 Z M 17.5 2.882812 C 12.382812 2.882812 7.898438 5.480469 5.28125 9.457031 C 5.625 9.46875 5.9375 9.457031 6.214844 9.457031 C 7.746094 9.457031 10.125 9.28125 10.125 9.28125 C 10.914062 9.234375 11 10.386719 10.210938 10.480469 C 10.210938 10.480469 9.40625 10.613281 8.523438 10.65625 L 13.855469 26.476562 L 17.054688 16.878906 L 14.789062 10.65625 C 14 10.613281 13.234375 10.480469 13.234375 10.480469 C 12.445312 10.433594 12.535156 9.234375 13.324219 9.28125 C 13.324219 9.28125 15.75 9.457031 17.1875 9.457031 C 18.722656 9.457031 21.097656 9.28125 21.097656 9.28125 C 21.886719 9.234375 21.976562 10.386719 21.1875 10.480469 C 21.1875 10.480469 20.378906 10.613281 19.5 10.65625 L 24.785156 26.386719 L 26.253906 21.5 C 26.992188 19.597656 27.363281 18 27.363281 16.746094 C 27.363281 14.933594 26.726562 13.71875 26.164062 12.746094 C 25.425781 11.539062 24.742188 10.484375 24.742188 9.28125 C 24.742188 7.9375 25.746094 6.703125 27.1875 6.703125 C 27.253906 6.703125 27.296875 6.703125 27.363281 6.703125 C 24.757812 4.3125 21.308594 2.882812 17.5 2.882812 Z M 30.339844 10.480469 C 30.40625 10.945312 30.429688 11.453125 30.429688 11.992188 C 30.429688 13.472656 30.152344 15.144531 29.320312 17.234375 L 24.875 30.164062 C 29.230469 27.625 32.117188 22.898438 32.117188 17.5 C 32.117188 14.957031 31.484375 12.5625 30.339844 10.480469 Z M 4.125 11.546875 C 3.316406 13.363281 2.882812 15.378906 2.882812 17.5 C 2.882812 23.292969 6.21875 28.28125 11.101562 30.652344 Z M 17.765625 18.789062 L 13.367188 31.539062 C 14.679688 31.925781 16.0625 32.117188 17.5 32.117188 C 19.207031 32.117188 20.820312 31.851562 22.34375 31.320312 C 22.304688 31.257812 22.28125 31.167969 22.253906 31.097656 Z M 17.765625 18.789062 "/>
</g>
</svg>
